# xmcd CD database file
#
# Track frame offsets:
#	150
#	14557
#	26017
#	46915
#	69255
#	84915
#	96772
#	111232
#	121690
#	146310
#	162920
#
# Disc length: 2394 seconds
#
# Revision: 0
# Processed by: cddbd v1.5.1PL2 Copyright (c) Steve Scherf et al.
# Submitted via: CDex 1.40Release
#
DISCID=8109580b
DTITLE=Black Horse Country Band (A) - Help Me
DYEAR=1900
DGENRE=Country
TTITLE0=Bumper To Bumper
TTITLE1=You Are The Best Wife
TTITLE2=The Puppet And The Blind
TTITLE3=Nashville Town
TTITLE4=With You
TTITLE5=Papa Come Quick
TTITLE6=Sing For You
TTITLE7=Country Man
TTITLE8=Help Me
TTITLE9=Somewhere
TTITLE10=Doorsteps To Yesterday
EXTD=ID3G: 2
EXTT0=
EXTT1=
EXTT2=
EXTT3=
EXTT4=
EXTT5=
EXTT6=
EXTT7=
EXTT8=
EXTT9=
EXTT10=
PLAYORDER=
